<svg xmlns="http://www.w3.org/2000/svg" xmlns:xlink="http://www.w3.org/1999/xlink" width="100" height="100" viewBox="0 0 100 100">
  <defs>
    <clipPath id="clip-Account">
      <rect width="100" height="100"/>
    </clipPath>
  </defs>
  <g id="Account" clip-path="url(#clip-Account)">
    <path id="Path_549" data-name="Path 549" d="M-1070-5827a11.921,11.921,0,0,1-8.485-3.515A11.925,11.925,0,0,1-1082-5839v-7.379a25.832,25.832,0,0,1,2.044-10.12,25.875,25.875,0,0,1,5.572-8.264,25.894,25.894,0,0,1,8.264-5.573,25.856,25.856,0,0,1,10.12-2.043h22a25.861,25.861,0,0,1,10.12,2.043,25.91,25.91,0,0,1,8.264,5.573,25.9,25.9,0,0,1,5.572,8.264,25.831,25.831,0,0,1,2.043,10.12V-5839a11.919,11.919,0,0,1-3.514,8.485A11.919,11.919,0,0,1-1020-5827Zm6.394-36.723a17.945,17.945,0,0,0-5.722,3.857,17.95,17.95,0,0,0-3.857,5.722,17.884,17.884,0,0,0-1.415,7.006v6.9a6.007,6.007,0,0,0,6,6h47.2a6.006,6.006,0,0,0,6-6v-6.9a17.911,17.911,0,0,0-1.414-7.006,17.932,17.932,0,0,0-3.859-5.722,17.94,17.94,0,0,0-5.72-3.857,17.906,17.906,0,0,0-7.008-1.414h-23.2A17.9,17.9,0,0,0-1063.606-5863.724Zm7.938-20.038a15.688,15.688,0,0,1-4.624-11.165v-.288a15.684,15.684,0,0,1,4.624-11.163,15.682,15.682,0,0,1,11.163-4.624,15.681,15.681,0,0,1,11.162,4.624,15.683,15.683,0,0,1,4.624,11.163v.288a15.687,15.687,0,0,1-4.624,11.165,15.686,15.686,0,0,1-11.162,4.623A15.687,15.687,0,0,1-1055.668-5883.761Zm2.283-11.388v.162a8.889,8.889,0,0,0,8.88,8.88,8.889,8.889,0,0,0,8.879-8.88v-.162a8.889,8.889,0,0,0-8.879-8.88A8.89,8.89,0,0,0-1053.385-5895.149Z" transform="translate(1094.999 5919)"/>
  </g>
</svg>
