<svg xmlns="http://www.w3.org/2000/svg" xmlns:xlink="http://www.w3.org/1999/xlink" width="100" height="100" viewBox="0 0 100 100">
  <defs>
    <clipPath id="clip-ChatOutCaptured">
      <rect width="100" height="100"/>
    </clipPath>
  </defs>
  <g id="ChatOutCaptured" clip-path="url(#clip-ChatOutCaptured)">
    <g id="Regular-M" transform="translate(-7.99 85.809)">
      <path id="Path_575" data-name="Path 575" d="M57.74,12.941a49.363,49.363,0,0,0,49-49c0-26.806-22.242-49-49.048-49-26.758,0-48.952,22.194-48.952,49C8.74-9.3,30.982,12.941,57.74,12.941Zm0-8.167A40.636,40.636,0,0,1,16.955-36.059,40.6,40.6,0,0,1,57.692-76.892,40.748,40.748,0,0,1,98.573-36.059,40.647,40.647,0,0,1,57.74,4.775Z"/>
    </g>
    <g id="Regular-M-2" data-name="Regular-M" transform="translate(28.01 121.809)">
      <path id="Path_575-2" data-name="Path 575" d="M21.74-59.059a13.1,13.1,0,0,0,13-13,13.1,13.1,0,0,0-13.013-13,13.085,13.085,0,0,0-12.987,13A13.1,13.1,0,0,0,21.74-59.059Z" transform="translate(0 0)"/>
    </g>
  </g>
</svg>
