<svg xmlns="http://www.w3.org/2000/svg" xmlns:xlink="http://www.w3.org/1999/xlink" width="100" height="100" viewBox="0 0 100 100">
  <defs>
    <clipPath id="clip-ChatInViewed">
      <rect width="100" height="100"/>
    </clipPath>
  </defs>
  <g id="ChatInViewed" clip-path="url(#clip-ChatInViewed)">
    <g id="Regular-M" transform="translate(-7.451 84.98)">
      <path id="Path_598" data-name="Path 598" d="M96.741-74.193c-4.978-5-12.007-5.787-20.353-5.787H38.368c-8.2,0-15.228.785-20.206,5.787s-5.71,12.016-5.71,20.207v37.864c0,8.387.732,15.351,5.71,20.354s12.007,5.787,20.3,5.787H76.388c8.346,0,15.374-.785,20.353-5.787s5.71-11.967,5.71-20.354V-53.839C102.451-62.226,101.72-69.239,96.741-74.193ZM94.593-55.212V-14.8c0,5.1-.635,10.3-3.612,13.292-2.928,2.943-8.2,3.629-13.227,3.629H37.148c-5.027,0-10.3-.687-13.275-3.629C20.944-4.5,20.309-9.7,20.309-14.8V-55.065c0-5.15.635-10.447,3.563-13.39,2.977-2.992,8.3-3.629,13.422-3.629H77.755c5.027,0,10.3.687,13.227,3.629C93.959-65.463,94.593-60.264,94.593-55.212Z"/>
    </g>
  </g>
</svg>
