<svg xmlns="http://www.w3.org/2000/svg" xmlns:xlink="http://www.w3.org/1999/xlink" width="100" height="100" viewBox="0 0 100 100">
  <defs>
    <clipPath id="clip-Chat">
      <rect width="100" height="100"/>
    </clipPath>
  </defs>
  <g id="Chat" clip-path="url(#clip-Chat)">
    <path id="Path_552" data-name="Path 552" d="M44.813-4703.937c-8.7,0-13.063-4.327-13.063-12.9v-11.689A34.178,34.178,0,0,1,5-4761.887,34.107,34.107,0,0,1,39.113-4796a34.129,34.129,0,0,1,32.615,24.17h14.85c8.653,0,13.063,4.327,13.063,12.9v42.1c0,8.57-4.41,12.9-13.063,12.9Zm-6.037-54.155v40.521c0,4.239,2.282,6.44,6.359,6.44H85.818c4.077,0,6.359-2.2,6.359-6.44v-40.521c0-4.239-2.282-6.44-6.359-6.44H45.134C41.057-4764.532,38.775-4762.331,38.775-4758.092ZM12.2-4761.353A27.2,27.2,0,0,0,31.75-4735.23v-23.7c0-8.57,4.368-12.9,13.063-12.9H64.57a27.256,27.256,0,0,0-25.143-16.753A27.226,27.226,0,0,0,12.2-4761.353Z" transform="translate(-2.784 4799.865)"/>
  </g>
</svg>
