<svg xmlns="http://www.w3.org/2000/svg" xmlns:xlink="http://www.w3.org/1999/xlink" width="100" height="100" viewBox="0 0 100 100">
  <defs>
    <clipPath id="clip-Discovery">
      <rect width="100" height="100"/>
    </clipPath>
  </defs>
  <g id="Discovery" clip-path="url(#clip-Discovery)">
    <path id="Path_550" data-name="Path 550" d="M-167-4738.021A18.044,18.044,0,0,1-149-4756a18.1,18.1,0,0,1,18,17.979A18.106,18.106,0,0,1-149-4720,18.052,18.052,0,0,1-167-4738.021Zm7.907,0c0,6.489,3.611,10.354,10.094,10.354,6.439,0,10.19-3.865,10.19-10.354,0-6.406-3.751-10.029-10.19-10.029C-155.482-4748.05-159.093-4744.427-159.093-4738.021Zm-55.907,0A18.043,18.043,0,0,1-197-4756a18.1,18.1,0,0,1,18,17.979A18.106,18.106,0,0,1-197-4720,18.052,18.052,0,0,1-215-4738.021Zm7.907,0c0,6.489,3.611,10.354,10.092,10.354,6.441,0,10.191-3.865,10.191-10.354,0-6.406-3.751-10.029-10.191-10.029C-203.482-4748.05-207.093-4744.427-207.093-4738.021Zm16.093-40A18.045,18.045,0,0,1-173-4796a18.1,18.1,0,0,1,18,17.98A18.106,18.106,0,0,1-173-4760,18.053,18.053,0,0,1-191-4778.021Zm7.907,0c0,6.488,3.611,10.354,10.094,10.354,6.441,0,10.191-3.866,10.191-10.354,0-6.407-3.751-10.03-10.191-10.03C-179.483-4788.05-183.094-4784.427-183.094-4778.021Z" transform="translate(223 4808)"/>
  </g>
</svg>
