<svg xmlns="http://www.w3.org/2000/svg" xmlns:xlink="http://www.w3.org/1999/xlink" width="100" height="100" viewBox="0 0 100 100">
  <defs>
    <clipPath id="clip-Explore">
      <rect width="100" height="100"/>
    </clipPath>
  </defs>
  <g id="Explore" clip-path="url(#clip-Explore)">
    <path id="Path_541" data-name="Path 541" d="M-305.909-4706.283a18.921,18.921,0,0,1-7.43-1.5,19.018,19.018,0,0,1-6.069-4.1,19.086,19.086,0,0,1-4.091-6.085,19.069,19.069,0,0,1-1.5-7.453v-32.55a18.992,18.992,0,0,1,2.082-8.7,19.294,19.294,0,0,1,5.561-6.621c.022-.025,2.132-1.929,4.8-4.338l.418-.377c5.651-5.1,13.389-12.075,13.688-12.374a18.953,18.953,0,0,1,6.315-4.206,18.97,18.97,0,0,1,7.182-1.4,18.98,18.98,0,0,1,7.184,1.4,18.965,18.965,0,0,1,6.315,4.206c.584.584,11.06,10,16.094,14.526l.128.115c1.722,1.548,2.529,2.274,2.538,2.283a19.289,19.289,0,0,1,5.721,6.662,19.236,19.236,0,0,1,2.146,8.828v32.55a19.09,19.09,0,0,1-1.5,7.453,19.123,19.123,0,0,1-4.091,6.085,19.039,19.039,0,0,1-6.068,4.1,18.929,18.929,0,0,1-7.43,1.5Zm39.935-7.449a16.789,16.789,0,0,0,5.75-.932,11.587,11.587,0,0,0,4.292-2.694,11.655,11.655,0,0,0,2.685-4.308,16.941,16.941,0,0,0,.928-5.767v-30.2a12.976,12.976,0,0,0-1.745-6.712,16.377,16.377,0,0,0-4.65-4.951c-.007-.007-.623-.533-1.644-1.4l-.221-.188-.008-.007c-4.414-3.77-14.752-12.6-15.246-13.092-3.49-3.5-6.786-4.235-8.937-4.235h0c-.123,0-.24,0-.356.005-3.371.116-6.122,1.42-8.923,4.23-.244.243-7.637,6.585-12.529,10.78l-.029.024-.435.375c-2.364,2.027-4.231,3.629-4.248,3.649a16.37,16.37,0,0,0-4.522,4.916,12.949,12.949,0,0,0-1.692,6.61v30.2a16.941,16.941,0,0,0,.928,5.767,11.654,11.654,0,0,0,2.685,4.308,11.587,11.587,0,0,0,4.292,2.694,16.789,16.789,0,0,0,5.75.932h8.439V-4731.1a10.5,10.5,0,0,1,10.5-10.5,10.5,10.5,0,0,1,10.5,10.5v17.366Z" transform="translate(334.911 4801.14)"/>
  </g>
</svg>
