<svg xmlns="http://www.w3.org/2000/svg" xmlns:xlink="http://www.w3.org/1999/xlink" width="100" height="100" viewBox="0 0 100 100">
  <defs>
    <clipPath id="clip-Notifications">
      <rect width="100" height="100"/>
    </clipPath>
  </defs>
  <g id="Notifications" clip-path="url(#clip-Notifications)">
    <path id="Path_551" data-name="Path 551" d="M115-4770.724c0-14.822,10.25-25.276,24.062-25.276,7.819,0,15.2,3.77,18.937,9.34,3.823-5.656,11.12-9.34,18.938-9.34,13.725,0,24.062,10.454,24.062,25.276C201-4752.9,174.506-4720,158-4720S115-4752.9,115-4770.724Zm7.367-.086c0,14.954,22.744,43,35.55,43,12.889,0,35.55-27.966,35.55-43,0-10.739-6.985-17.844-16.382-17.844-7.651,0-13.6,5.744-16.424,9.709-1.164,1.57-1.746,2.065-2.744,2.065s-1.663-.413-2.744-2.065c-2.577-4.048-8.773-9.709-16.424-9.709C129.352-4788.654,122.367-4781.549,122.367-4770.81Z" transform="translate(-108 4808)"/>
  </g>
</svg>
