<svg xmlns="http://www.w3.org/2000/svg" xmlns:xlink="http://www.w3.org/1999/xlink" width="100" height="100" viewBox="0 0 100 100">
  <defs>
    <clipPath id="clip-Notifications">
      <rect width="100" height="100"/>
    </clipPath>
  </defs>
  <g id="Notifications" clip-path="url(#clip-Notifications)">
    <path id="Path_551" data-name="Path 551" d="M115-4769.394C115-4785,125.727-4796,140.182-4796c8.182,0,15.91,3.969,19.818,9.832,4-5.953,11.637-9.832,19.819-9.832,14.363,0,25.181,11,25.181,26.606,0,18.76-27.727,53.394-45,53.394S115-4750.634,115-4769.394Zm7.709-.09c0,15.74,23.8,45.267,37.2,45.267,13.488,0,37.2-29.438,37.2-45.267,0-11.3-7.31-18.784-17.143-18.784-8.007,0-14.229,6.046-17.188,10.22-1.218,1.652-1.827,2.173-2.872,2.173s-1.74-.434-2.872-2.173c-2.7-4.261-9.181-10.22-17.188-10.22C130.019-4788.268,122.71-4780.789,122.71-4769.484Z" transform="translate(-110 4806)"/>
  </g>
</svg>
